/* XPM */
static char * coin_height_xpm[] = {
"96 108 3 1",
" 	c None",
".	c #FFFC1B",
"+	c #000000",
"                                                                                                ",
"                                                                                                ",
"                                                                                                ",
"                                                                                                ",
"                                                                                                ",
"                                                                                                ",
"                                                                                                ",
"                                                                                                ",
"                                                                                                ",
"                                                                                                ",
"                                                                                                ",
"                                                                                                ",
"                                                                                                ",
"                                                                                                ",
"                                                                                                ",
"                                                                                                ",
"                                                                                                ",
"                                                                                                ",
"                                                                                                ",
"                                                                                                ",
"                                                                                                ",
"                                                                                                ",
"                                 ..............................                                 ",
"                                 ..............................                                 ",
"                                 ..............................                                 ",
"                                 ..............................                                 ",
"                                 ..............................                                 ",
"                                 ..............................                                 ",
"                                 ..............................                                 ",
"                         ........++++++++++++++++++++++++++++++........                         ",
"                         ........++++++++++++++++++++++++++++++........                         ",
"                         ........++++++++++++++++++++++++++++++........                         ",
"                         ........++++++++++++++++++++++++++++++........                         ",
"                         ........++++++++++++++++++++++++++++++........                         ",
"                         ........++++++++++++++++++++++++++++++........                         ",
"                         ........++++++++++++++++++++++++++++++........                         ",
"                         ........++++++++++++++++++++++++++++++........                         ",
"                  .......++++++++++++++++++++++++++++++++++++++++++++++.......                  ",
"                  .......+++++++++++++++................+++++++++++++++.......                  ",
"                  .......+++++++++++++++................+++++++++++++++.......                  ",
"                  .......+++++++++++++++................+++++++++++++++.......                  ",
"                  .......+++++++++++++++................+++++++++++++++.......                  ",
"                  .......+++++++++++++++................+++++++++++++++.......                  ",
"                  .......+++++++++++++++................+++++++++++++++.......                  ",
"                  .......+++++++++++++++................+++++++++++++++.......                  ",
"                  .......++++++++.......++++++++++++++++.......++++++++.......                  ",
"                  .......++++++++.......++++++++++++++++.......++++++++.......                  ",
"                  .......++++++++.......++++++++++++++++.......++++++++.......                  ",
"                  .......++++++++.......++++++++++++++++.......++++++++.......                  ",
"                  .......++++++++.......++++++++++++++++.......++++++++.......                  ",
"                  .......++++++++.......++++++++++++++++.......++++++++.......                  ",
"                  .......++++++++.......++++++++++++++++.......++++++++.......                  ",
"                  .......++++++++.......++++++++++++++++.......++++++++.......                  ",
"                  .......++++++++.......++++++++++++++++.......++++++++.......                  ",
"                  .......++++++++.......++++++++++++++++.......++++++++.......                  ",
"                  .......++++++++.......++++++++++++++++.......++++++++.......                  ",
"                  .......++++++++.......++++++++++++++++.......++++++++.......                  ",
"                  .......++++++++.......++++++++++++++++.......++++++++.......                  ",
"                  .......++++++++.......++++++++++++++++.......++++++++.......                  ",
"                  .......++++++++.......++++++++++++++++.......++++++++.......                  ",
"                  .......++++++++.......++++++++++++++++.......++++++++.......                  ",
"                  .......++++++++.......++++++++++++++++.......++++++++.......                  ",
"                  .......+++++++++++++++................+++++++++++++++.......                  ",
"                  .......+++++++++++++++................+++++++++++++++.......                  ",
"                  .......+++++++++++++++................+++++++++++++++.......                  ",
"                  .......+++++++++++++++................+++++++++++++++.......                  ",
"                  .......+++++++++++++++................+++++++++++++++.......                  ",
"                  .......+++++++++++++++................+++++++++++++++.......                  ",
"                  .......+++++++++++++++................+++++++++++++++.......                  ",
"                  .......++++++++++++++++++++++++++++++++++++++++++++++.......                  ",
"                         ........++++++++++++++++++++++++++++++........                         ",
"                         ........++++++++++++++++++++++++++++++........                         ",
"                         ........++++++++++++++++++++++++++++++........                         ",
"                         ........++++++++++++++++++++++++++++++........                         ",
"                         ........++++++++++++++++++++++++++++++........                         ",
"                         ........++++++++++++++++++++++++++++++........                         ",
"                         ........++++++++++++++++++++++++++++++........                         ",
"                         ........++++++++++++++++++++++++++++++........                         ",
"                                 ..............................                                 ",
"                                 ..............................                                 ",
"                                 ..............................                                 ",
"                                 ..............................                                 ",
"                                 ..............................                                 ",
"                                 ..............................                                 ",
"                                 ..............................                                 ",
"                                 ..............................                                 ",
"                                                                                                ",
"                                                                                                ",
"                                                                                                ",
"                                                                                                ",
"                                                                                                ",
"                                                                                                ",
"                                                                                                ",
"                                                                                                ",
"                                                                                                ",
"                                                                                                ",
"                                                                                                ",
"                                                                                                ",
"                                                                                                ",
"                                                                                                ",
"                                                                                                ",
"                                                                                                ",
"                                                                                                ",
"                                                                                                ",
"                                                                                                ",
"                                                                                                ",
"                                                                                                ",
"                                                                                                "};
