/* XPM */
static char * exit_xpm[] = {
"96 96 3 1",
" 	c #000000",
".	c #175EFE",
"+	c #FFFFFF",
"                                                                                                ",
"                                                                                                ",
"                                                                                                ",
"                           ...........................................                          ",
"                          .............................................                         ",
"                         ...............................................                        ",
"                        .................................................                       ",
"                       ...................................................                      ",
"                      .......                                       .......                     ",
"                     .......                                         .......                    ",
"                    .......                                           .......                   ",
"                   .......                                             .......                  ",
"                  .......                                               .......                 ",
"                 .......                                                 .......                ",
"                .......       +++++++++++++++++++++++++++++++++++++       .......               ",
"               .......       +++++++++++++++++++++++++++++++++++++++       .......              ",
"              .......       +++++++++++++++++++++++++++++++++++++++++       .......             ",
"             .......       +++++++++++++++++++++++++++++++++++++++++++       .......            ",
"            .......       +++++++++++++++++++++++++++++++++++++++++++++       .......           ",
"           ........      +++++++++++                         +++++++++++      ........          ",
"           ........      +++++++++++                         +++++++++++      ........          ",
"           ........      +++++++++++                         +++++++++++      ........          ",
"           ........      +++++++++++                         +++++++++++      ........          ",
"           ........      +++++++++++                         +++++++++++      ........          ",
"           ........      +++++++++++                         +++++++++++      ........          ",
"           ........      +++++++++++                         +++++++++++      ........          ",
"           ........      +++++++++++                         +++++++++++      ........          ",
"           ........      +++++++++++                         +++++++++++      ........          ",
"           ........      +++        +++++++++++++++++++++++++        +++      ........          ",
"           ........      +++        +++++++++++++++++++++++++        +++      ........          ",
"           ........      +++        +++++++++++++++++++++++++        +++      ........          ",
"           ........      +++        +++++++++++++++++++++++++        +++      ........          ",
"           ........      +++        +++++++++++++++++++++++++        +++      ........          ",
"           ........      +++        +++++++++++++++++++++++++        +++      ........          ",
"           ........      +++        +++++++++++++++++++++++++        +++      ........          ",
"           ........      +++        +++++++++++++++++++++++++        +++      ........          ",
"           ........      +++        +++++++++++++++++++++++++        +++      ........          ",
"           ........      +++        +++++++++++++++++++++++++        +++      ........          ",
"           ........      +++        +++++++++++++++++++++++++        +++      ........          ",
"           ........      +++        +++++++++++++++++++++++++        +++      ........          ",
"           ........      +++        +++++++++++++++++++++++++        +++      ........          ",
"           ........      +++        +++++++++++++++++++++++++        +++      ........          ",
"           ........      +++        +++++++++++++++++++++++++        +++      ........          ",
"           ........      +++        +++++++++++++++++++++++++        +++      ........          ",
"           ........      +++++++++++        +++++++++        +++++++++++      ........          ",
"           ........      +++++++++++        +++++++++        +++++++++++      ........          ",
"           ........      +++++++++++        +++++++++        +++++++++++      ........          ",
"           ........      +++++++++++        +++++++++        +++++++++++      ........          ",
"           ........      +++++++++++        +++++++++        +++++++++++      ........          ",
"           ........      +++++++++++        +++++++++        +++++++++++      ........          ",
"           ........      +++++++++++        +++++++++        +++++++++++      ........          ",
"           ........      +++++++++++        +++++++++        +++++++++++      ........          ",
"           ........      +++++++++++        +++++++++        +++++++++++      ........          ",
"           ........      +++++++++++        +++++++++        +++++++++++      ........          ",
"           ........      +++++++++++        +++++++++        +++++++++++      ........          ",
"           ........      +++++++++++        +++++++++        +++++++++++      ........          ",
"           ........      +++++++++++        +++++++++        +++++++++++      ........          ",
"           ........      +++++++++++        +++++++++        +++++++++++      ........          ",
"           ........      +++++++++++        +++++++++        +++++++++++      ........          ",
"           ........      +++++++++++        +++++++++        +++++++++++      ........          ",
"           ........      +++++++++++        +++++++++        +++++++++++      ........          ",
"           ........      +++++++++++        +++++++++++++++++        +++      ........          ",
"           ........      +++++++++++        +++++++++++++++++        +++      ........          ",
"           ........      +++++++++++        +++++++++++++++++        +++      ........          ",
"           ........      +++++++++++        +++++++++++++++++        +++      ........          ",
"           ........      +++++++++++        +++++++++++++++++        +++      ........          ",
"           ........      +++++++++++        +++++++++++++++++        +++      ........          ",
"           ........      +++++++++++        +++++++++++++++++        +++      ........          ",
"           ........      +++++++++++        +++++++++++++++++        +++      ........          ",
"           ........      +++++++++++                                 +++      ........          ",
"           ........      +++++++++++                                 +++      ........          ",
"           ........      +++++++++++                                 +++      ........          ",
"           ........      +++++++++++                                 +++      ........          ",
"           ........      +++++++++++                                 +++      ........          ",
"           ........      +++++++++++                                 +++      ........          ",
"           ........      +++++++++++                                 +++      ........          ",
"           ........      +++++++++++                                 +++      ........          ",
"           ........      +++++++++++                                 +++      ........          ",
"           ........      +++++++++++++++++++++++++++++++++++++++++++++++      ........          ",
"           ........      +++++++++++++++++++++++++++++++++++++++++++++++      ........          ",
"           ........      +++++++++++++++++++++++++++++++++++++++++++++++      ........          ",
"           ........      +++++++++++++++++++++++++++++++++++++++++++++++      ........          ",
"           ........      +++++++++++++++++++++++++++++++++++++++++++++++      ........          ",
"           ........      +++++++++++++++++++++++++++++++++++++++++++++++      ........          ",
"           ........      +++++++++++++++++++++++++++++++++++++++++++++++      ........          ",
"           ........       +++++++++++++++++++++++++++++++++++++++++++++       ........          ",
"           ........        +++++++++++++++++++++++++++++++++++++++++++        ........          ",
"           ........         +++++++++++++++++++++++++++++++++++++++++         ........          ",
"           ........          +++++++++++++++++++++++++++++++++++++++          ........          ",
"           ........           +++++++++++++++++++++++++++++++++++++           ........          ",
"           ........            +++++++++++++++++++++++++++++++++++            ........          ",
"           ........             +++++++++++++++++++++++++++++++++             ........          ",
"           ........              +++++++++++++++++++++++++++++++              ........          ",
"           ........               +++++++++++++++++++++++++++++               ........          ",
"                                                                                                ",
"                                                                                                "};
