/* XPM */
static char * exit_not_reached_height_xpm[] = {
"96 108 3 1",
" 	c None",
".	c #000000",
"+	c #FFFFFF",
"                                                                                                ",
"                                                                                                ",
"                                                                                                ",
"                                                                                                ",
"                                                                                                ",
"                                                                                                ",
"                                                                                                ",
"                                                                                                ",
"                                                                                                ",
"                                                                                                ",
"                           +++++++++        +++++++++       +++++++++                           ",
"                           +++++++++        +++++++++       +++++++++                           ",
"                           +++++++++        +++++++++       +++++++++                           ",
"                           +++++++++        +++++++++       +++++++++                           ",
"                           +++++++++        +++++++++       +++++++++                           ",
"                           +++++++++        +++++++++       +++++++++                           ",
"                           +++++++++        +++++++++       +++++++++                           ",
"                           +++++++++        +++++++++       +++++++++                           ",
"                           +++++++++        +++++++++       +++++++++                           ",
"                                                                                                ",
"                                                                                                ",
"                                                                                                ",
"                                                                                                ",
"                                                                                                ",
"                                                                                                ",
"                                                                                                ",
"           +++++++++                +++++++++++++++++++++++++                +++++++++          ",
"           +++++++++                +++++++++++++++++++++++++                +++++++++          ",
"           +++++++++                +++++++++++++++++++++++++                +++++++++          ",
"           +++++++++                +++++++++++++++++++++++++                +++++++++          ",
"           +++++++++                +++++++++++++++++++++++++                +++++++++          ",
"           +++++++++                +++++++++++++++++++++++++                +++++++++          ",
"           +++++++++                +++++++++++++++++++++++++                +++++++++          ",
"           +++++++++                +++++++++++++++++++++++++                +++++++++          ",
"           +++++++++                +++++++++++++++++++++++++                +++++++++          ",
"                            ++++++++.........................++++++++                           ",
"                            ++++++++.........................++++++++                           ",
"                            ++++++++.........................++++++++                           ",
"                            ++++++++.........................++++++++                           ",
"                            ++++++++.........................++++++++                           ",
"                            ++++++++.........................++++++++                           ",
"                            ++++++++.........................++++++++                           ",
"           +++++++++        ++++++++.........................++++++++        +++++++++          ",
"           +++++++++        ++++++++.........................++++++++        +++++++++          ",
"           +++++++++        ++++++++.........................++++++++        +++++++++          ",
"           +++++++++        ++++++++.........................++++++++        +++++++++          ",
"           +++++++++        ++++++++.........................++++++++        +++++++++          ",
"           +++++++++        ++++++++.........................++++++++        +++++++++          ",
"           +++++++++        ++++++++.........................++++++++        +++++++++          ",
"           +++++++++        ++++++++.........................++++++++        +++++++++          ",
"           +++++++++        ++++++++.........................++++++++        +++++++++          ",
"                                    ++++++++........+++++++++                                   ",
"                                    ++++++++........+++++++++                                   ",
"                                    ++++++++........+++++++++                                   ",
"                                    ++++++++........+++++++++                                   ",
"                                    ++++++++........+++++++++                                   ",
"                                    ++++++++........+++++++++                                   ",
"                                    ++++++++........+++++++++                                   ",
"           +++++++++                ++++++++........+++++++++                +++++++++          ",
"           +++++++++                ++++++++........+++++++++                +++++++++          ",
"           +++++++++                ++++++++........+++++++++                +++++++++          ",
"           +++++++++                ++++++++........+++++++++                +++++++++          ",
"           +++++++++                ++++++++........+++++++++                +++++++++          ",
"           +++++++++                ++++++++........+++++++++                +++++++++          ",
"           +++++++++                ++++++++........+++++++++                +++++++++          ",
"           +++++++++                ++++++++........+++++++++                +++++++++          ",
"           +++++++++                ++++++++........+++++++++                +++++++++          ",
"                                    ++++++++.................++++++++                           ",
"                                    ++++++++.................++++++++                           ",
"                                    ++++++++.................++++++++                           ",
"                                    ++++++++.................++++++++                           ",
"                                    ++++++++.................++++++++                           ",
"                                    ++++++++.................++++++++                           ",
"                                    ++++++++.................++++++++                           ",
"           +++++++++                ++++++++.................++++++++        +++++++++          ",
"           +++++++++                +++++++++++++++++++++++++++++++++        +++++++++          ",
"           +++++++++                +++++++++++++++++++++++++++++++++        +++++++++          ",
"           +++++++++                +++++++++++++++++++++++++++++++++        +++++++++          ",
"           +++++++++                +++++++++++++++++++++++++++++++++        +++++++++          ",
"           +++++++++                +++++++++++++++++++++++++++++++++        +++++++++          ",
"           +++++++++                +++++++++++++++++++++++++++++++++        +++++++++          ",
"           +++++++++                +++++++++++++++++++++++++++++++++        +++++++++          ",
"           +++++++++                +++++++++++++++++++++++++++++++++        +++++++++          ",
"                                                                                                ",
"                                                                                                ",
"                                                                                                ",
"                                                                                                ",
"                                                                                                ",
"                                                                                                ",
"                                                                                                ",
"           +++++++++       +++++++++        +++++++++       +++++++++        +++++++++          ",
"           +++++++++       +++++++++        +++++++++       +++++++++        +++++++++          ",
"           +++++++++       +++++++++        +++++++++       +++++++++        +++++++++          ",
"           +++++++++       +++++++++        +++++++++       +++++++++        +++++++++          ",
"           +++++++++       +++++++++        +++++++++       +++++++++        +++++++++          ",
"           +++++++++       +++++++++        +++++++++       +++++++++        +++++++++          ",
"           +++++++++       +++++++++        +++++++++       +++++++++        +++++++++          ",
"           +++++++++       +++++++++        +++++++++       +++++++++        +++++++++          ",
"           +++++++++       +++++++++        +++++++++       +++++++++        +++++++++          ",
"                                                                                                ",
"                                                                                                ",
"                                                                                                ",
"                                                                                                ",
"                                                                                                ",
"                                                                                                ",
"                                                                                                ",
"                                                                                                ",
"                                                                                                "};
