/* XPM */
static char * exit_height_xpm[] = {
"96 108 4 1",
" 	c None",
".	c #FFFFFF",
"+	c #175EFE",
"@	c #000000",
"                                                                                                ",
"                                                                                                ",
"                                                                                                ",
"                                                                                                ",
"                                                                                                ",
"                                                                                                ",
"                                                                                                ",
"                                                                                                ",
"                                                                                                ",
"                                                                                                ",
"                                                                                                ",
"                                                                                                ",
"                                                                                                ",
"                                                                                                ",
"                                                                                                ",
"                                                                                                ",
"                                                                                                ",
"                           +++++++++++++++++++++++++++++++++++++++++++                          ",
"                          +++++++++++++++++++++++++++++++++++++++++++++                         ",
"                         +++++++++++++++++++++++++++++++++++++++++++++++                        ",
"                        +++++++++++++++++++++++++++++++++++++++++++++++++                       ",
"                       +++++++++++++++++++++++++++++++++++++++++++++++++++                      ",
"                      +++++++@@@@@@@@@@@@@@@@@@@@@@@@@@@@@@@@@@@@@@@+++++++                     ",
"                     +++++++@@@@@@@@@@@@@@@@@@@@@@@@@@@@@@@@@@@@@@@@@+++++++                    ",
"                    +++++++@@@@@@@@@@@@@@@@@@@@@@@@@@@@@@@@@@@@@@@@@@@+++++++                   ",
"                   +++++++@@@@@@@@@@@@@@@@@@@@@@@@@@@@@@@@@@@@@@@@@@@@@+++++++                  ",
"                  +++++++@@@@@@@@@@@@@@@@@@@@@@@@@@@@@@@@@@@@@@@@@@@@@@@+++++++                 ",
"                 +++++++@@@@@@@@@@@@@@@@@@@@@@@@@@@@@@@@@@@@@@@@@@@@@@@@@+++++++                ",
"                +++++++@@@@@@@.....................................@@@@@@@+++++++               ",
"               +++++++@@@@@@@.......................................@@@@@@@+++++++              ",
"              +++++++@@@@@@@.........................................@@@@@@@+++++++             ",
"             +++++++@@@@@@@...........................................@@@@@@@+++++++            ",
"            +++++++@@@@@@@.............................................@@@@@@@+++++++           ",
"           ++++++++@@@@@@...........@@@@@@@@@@@@@@@@@@@@@@@@@...........@@@@@@++++++++          ",
"           ++++++++@@@@@@...........@@@@@@@@@@@@@@@@@@@@@@@@@...........@@@@@@++++++++          ",
"           ++++++++@@@@@@...........@@@@@@@@@@@@@@@@@@@@@@@@@...........@@@@@@++++++++          ",
"           ++++++++@@@@@@...........@@@@@@@@@@@@@@@@@@@@@@@@@...........@@@@@@++++++++          ",
"           ++++++++@@@@@@...........@@@@@@@@@@@@@@@@@@@@@@@@@...........@@@@@@++++++++          ",
"           ++++++++@@@@@@...........@@@@@@@@@@@@@@@@@@@@@@@@@...........@@@@@@++++++++          ",
"           ++++++++@@@@@@...........@@@@@@@@@@@@@@@@@@@@@@@@@...........@@@@@@++++++++          ",
"           ++++++++@@@@@@...........@@@@@@@@@@@@@@@@@@@@@@@@@...........@@@@@@++++++++          ",
"           ++++++++@@@@@@...........@@@@@@@@@@@@@@@@@@@@@@@@@...........@@@@@@++++++++          ",
"           ++++++++@@@@@@...@@@@@@@@.........................@@@@@@@@...@@@@@@++++++++          ",
"           ++++++++@@@@@@...@@@@@@@@.........................@@@@@@@@...@@@@@@++++++++          ",
"           ++++++++@@@@@@...@@@@@@@@.........................@@@@@@@@...@@@@@@++++++++          ",
"           ++++++++@@@@@@...@@@@@@@@.........................@@@@@@@@...@@@@@@++++++++          ",
"           ++++++++@@@@@@...@@@@@@@@.........................@@@@@@@@...@@@@@@++++++++          ",
"           ++++++++@@@@@@...@@@@@@@@.........................@@@@@@@@...@@@@@@++++++++          ",
"           ++++++++@@@@@@...@@@@@@@@.........................@@@@@@@@...@@@@@@++++++++          ",
"           ++++++++@@@@@@...@@@@@@@@.........................@@@@@@@@...@@@@@@++++++++          ",
"           ++++++++@@@@@@...@@@@@@@@.........................@@@@@@@@...@@@@@@++++++++          ",
"           ++++++++@@@@@@...@@@@@@@@.........................@@@@@@@@...@@@@@@++++++++          ",
"           ++++++++@@@@@@...@@@@@@@@.........................@@@@@@@@...@@@@@@++++++++          ",
"           ++++++++@@@@@@...@@@@@@@@.........................@@@@@@@@...@@@@@@++++++++          ",
"           ++++++++@@@@@@...@@@@@@@@.........................@@@@@@@@...@@@@@@++++++++          ",
"           ++++++++@@@@@@...@@@@@@@@.........................@@@@@@@@...@@@@@@++++++++          ",
"           ++++++++@@@@@@...@@@@@@@@.........................@@@@@@@@...@@@@@@++++++++          ",
"           ++++++++@@@@@@...@@@@@@@@.........................@@@@@@@@...@@@@@@++++++++          ",
"           ++++++++@@@@@@...........@@@@@@@@.........@@@@@@@@...........@@@@@@++++++++          ",
"           ++++++++@@@@@@...........@@@@@@@@.........@@@@@@@@...........@@@@@@++++++++          ",
"           ++++++++@@@@@@...........@@@@@@@@.........@@@@@@@@...........@@@@@@++++++++          ",
"           ++++++++@@@@@@...........@@@@@@@@.........@@@@@@@@...........@@@@@@++++++++          ",
"           ++++++++@@@@@@...........@@@@@@@@.........@@@@@@@@...........@@@@@@++++++++          ",
"           ++++++++@@@@@@...........@@@@@@@@.........@@@@@@@@...........@@@@@@++++++++          ",
"           ++++++++@@@@@@...........@@@@@@@@.........@@@@@@@@...........@@@@@@++++++++          ",
"           ++++++++@@@@@@...........@@@@@@@@.........@@@@@@@@...........@@@@@@++++++++          ",
"           ++++++++@@@@@@...........@@@@@@@@.........@@@@@@@@...........@@@@@@++++++++          ",
"           ++++++++@@@@@@...........@@@@@@@@.........@@@@@@@@...........@@@@@@++++++++          ",
"           ++++++++@@@@@@...........@@@@@@@@.........@@@@@@@@...........@@@@@@++++++++          ",
"           ++++++++@@@@@@...........@@@@@@@@.........@@@@@@@@...........@@@@@@++++++++          ",
"           ++++++++@@@@@@...........@@@@@@@@.........@@@@@@@@...........@@@@@@++++++++          ",
"           ++++++++@@@@@@...........@@@@@@@@.........@@@@@@@@...........@@@@@@++++++++          ",
"           ++++++++@@@@@@...........@@@@@@@@.........@@@@@@@@...........@@@@@@++++++++          ",
"           ++++++++@@@@@@...........@@@@@@@@.........@@@@@@@@...........@@@@@@++++++++          ",
"           ++++++++@@@@@@...........@@@@@@@@.........@@@@@@@@...........@@@@@@++++++++          ",
"           ++++++++@@@@@@...........@@@@@@@@.................@@@@@@@@...@@@@@@++++++++          ",
"           ++++++++@@@@@@...........@@@@@@@@.................@@@@@@@@...@@@@@@++++++++          ",
"           ++++++++@@@@@@...........@@@@@@@@.................@@@@@@@@...@@@@@@++++++++          ",
"           ++++++++@@@@@@...........@@@@@@@@.................@@@@@@@@...@@@@@@++++++++          ",
"           ++++++++@@@@@@...........@@@@@@@@.................@@@@@@@@...@@@@@@++++++++          ",
"           ++++++++@@@@@@...........@@@@@@@@.................@@@@@@@@...@@@@@@++++++++          ",
"           ++++++++@@@@@@...........@@@@@@@@.................@@@@@@@@...@@@@@@++++++++          ",
"           ++++++++@@@@@@...........@@@@@@@@.................@@@@@@@@...@@@@@@++++++++          ",
"           ++++++++@@@@@@...........@@@@@@@@@@@@@@@@@@@@@@@@@@@@@@@@@...@@@@@@++++++++          ",
"           ++++++++@@@@@@...........@@@@@@@@@@@@@@@@@@@@@@@@@@@@@@@@@...@@@@@@++++++++          ",
"           ++++++++@@@@@@...........@@@@@@@@@@@@@@@@@@@@@@@@@@@@@@@@@...@@@@@@++++++++          ",
"           ++++++++@@@@@@...........@@@@@@@@@@@@@@@@@@@@@@@@@@@@@@@@@...@@@@@@++++++++          ",
"           ++++++++@@@@@@...........@@@@@@@@@@@@@@@@@@@@@@@@@@@@@@@@@...@@@@@@++++++++          ",
"           ++++++++@@@@@@...........@@@@@@@@@@@@@@@@@@@@@@@@@@@@@@@@@...@@@@@@++++++++          ",
"           ++++++++@@@@@@...........@@@@@@@@@@@@@@@@@@@@@@@@@@@@@@@@@...@@@@@@++++++++          ",
"           ++++++++@@@@@@...........@@@@@@@@@@@@@@@@@@@@@@@@@@@@@@@@@...@@@@@@++++++++          ",
"           ++++++++@@@@@@...........@@@@@@@@@@@@@@@@@@@@@@@@@@@@@@@@@...@@@@@@++++++++          ",
"           ++++++++@@@@@@...............................................@@@@@@++++++++          ",
"           ++++++++@@@@@@...............................................@@@@@@++++++++          ",
"           ++++++++@@@@@@...............................................@@@@@@++++++++          ",
"           ++++++++@@@@@@...............................................@@@@@@++++++++          ",
"           ++++++++@@@@@@...............................................@@@@@@++++++++          ",
"           ++++++++@@@@@@...............................................@@@@@@++++++++          ",
"           ++++++++@@@@@@...............................................@@@@@@++++++++          ",
"           ++++++++@@@@@@...............................................@@@@@@++++++++          ",
"           ++++++++@@@@@@...............................................@@@@@@++++++++          ",
"           ++++++++@@@@@@...............................................@@@@@@++++++++          ",
"           ++++++++@@@@@@...............................................@@@@@@++++++++          ",
"           ++++++++@@@@@@...............................................@@@@@@++++++++          ",
"           ++++++++@@@@@@...............................................@@@@@@++++++++          ",
"           ++++++++@@@@@@...............................................@@@@@@++++++++          ",
"           ++++++++@@@@@@...............................................@@@@@@++++++++          ",
"           ++++++++@@@@@@...............................................@@@@@@++++++++          "};
