/* XPM */
static char * first_coin_height_xpm[] = {
"96 108 9 1",
" 	c None",
".	c #000000",
"+	c #FFFC14",
"@	c #DFDC11",
"#	c #EFEC12",
"$	c #CFCC10",
"%	c #0F0F01",
"&	c #1F1F02",
"*	c #2F2F03",
"                                                                                                ",
"                                                                                                ",
"                                                                                                ",
"                                                                                                ",
"                                                                                                ",
"                                                                                                ",
"                                                                                                ",
"                                                                                                ",
"                                                                                                ",
"                                                                                                ",
"                                                                                                ",
"                                                                                                ",
"                                                                                                ",
"                                                                                                ",
"                                                                                                ",
"                                                                                                ",
"                                                                                                ",
"                                                                                                ",
"                                                                                                ",
"                                 +++++++++++++++++++++++++++++++                                ",
"                                 +++++++++++++++++++++++++++++++                                ",
"                                 +++++++++++++++++++++++++++++++                                ",
"                                 +++++++++++++++++++++++++++++++                                ",
"                                 +++++++++++++++++++++++++++++++                                ",
"                                 +++++++++++++++++++++++++++++++                                ",
"                                 +++++++++++++++++++++++++++++++                                ",
"                                 +++++++++++++++++++++++++++++++                                ",
"                                 +++++++++++++++++++++++++++++++                                ",
"                         ++++++++.......................++++++++++++++++                        ",
"                         ++++++++.......................++++++++++++++++                        ",
"                         ++++++++.......................++++++++++++++++                        ",
"                         ++++++++.......................++++++++++++++++                        ",
"                         ++++++++.......................++++++++++++++++                        ",
"                         ++++++++.......................++++++++++++++++                        ",
"                         ++++++++.......................++++++++++++++++                        ",
"                         ++++++++.......................++++++++++++++++                        ",
"                  +++++++........++++++++++++++++...............+++++++++++++++                 ",
"                  +++++++........++++++++++++++++...............+++++++++++++++                 ",
"                  +++++++........++++++++++++++++...............+++++++++++++++                 ",
"                  +++++++........++++++++++++++++...............+++++++++++++++                 ",
"                  +++++++........++++++++++++++++...............+++++++++++++++                 ",
"                  +++++++........++++++++++++++++...............+++++++++++++++                 ",
"                  +++++++........++++++++++++++++...............+++++++++++++++                 ",
"                  +++++++........++++++++++++++++...............+++++++++++++++                 ",
"                  +++++++........++++++++++++++++...............+++++++++++++++                 ",
"                  +++++++++++++++++++++++........+++++++........+++++++++++++++                 ",
"                  +++++++++++++++++++++++........+++++++........+++++++++++++++                 ",
"                  +++++++++++++++++++++++........+++++++........+++++++++++++++                 ",
"                  +++++++++++++++++++++++........+++++++........+++++++++++++++                 ",
"                  +++++++++++++++++++++++........+++++++........+++++++++++++++                 ",
"                  +++++++++++++++++++++++........+++++++........+++++++++++++++                 ",
"                  +++++++++++++++++++++++........+++++++........+++++++++++++++                 ",
"                  +++++++++++++++++++++++........+++++++........+++++++++++++++                 ",
"                  +++++++++++++++++++++++........+++++++........+++++++++++++++                 ",
"                  +++++++++++++++++++++++........+++++++........+++++++++++++++                 ",
"                  +++++++++++++++++++++++........+++++++........+++++++++++++++                 ",
"                  +++++++++++++++++++++++........+++++++........+++++++++++++++                 ",
"                  +++++++++++++++++++++++........+++++++........+++++++++++++++                 ",
"                  +++++++++++++++++++++++........+++++++........+++++++++++++++                 ",
"                  +++++++++++++++++++++++........+++++++........+++++++++++++++                 ",
"                  +++++++++++++++++++++++........+++++++........+++++++++++++++                 ",
"                  +++++++++++++++++++++++........+++++++........+++++++++++++++                 ",
"                  +++++++++++++++++++++++........+++++++........+++++++++++++++                 ",
"                  +++++++........++++++++++++++++...............+++++++++++++++                 ",
"                  +++++++........++++++++++++++++...............+++++++++++++++                 ",
"                  +++++++........++++++++++++++++...............+++++++++++++++                 ",
"                  +++++++........++++++++++++++++...............+++++++++++++++                 ",
"                  +++++++........++++++++++++++++...............+++++++++++++++                 ",
"                  +++++++........++++++++++++++++...............+++++++++++++++                 ",
"                  +++++++........++++++++++++++++...............+++++++++++++++                 ",
"                  +++++++........++++++++++++++++...............+++++++++++++++                 ",
"                         ++++++++.......................++++++++++++++++                        ",
"                         ++++++++.......................++++++++++++++++                        ",
"                         ++++++++.......................++++++++++++++++                        ",
"                         ++++++++.......................++++++++++++++++                        ",
"                         ++++++++.......................++++++++++++++++                        ",
"                         ++++++++.......................++++++++++++++++                        ",
"                         ++++++++.......................++++++++++++++++                        ",
"                         ++++++++.......................++++++++++++++++                        ",
"                         ++++++++.......................++++++++++++++++                        ",
"                                 +++++++++++++++++++++++++++++++                                ",
"                                 +++++++++++++++++++++++++++++++                                ",
"                                 +++++++++++++++++++++++++++++++                                ",
"                                 +++++++++++++++++++++++++++++++                                ",
"                                 +++++++++++++++++++++++++++++++                                ",
"                                 +++++++++++++++++++++++++++++++                                ",
"                                 +++++++++++++++++++++++++++++++                                ",
"                                 +++++++++++++++++++++++++++++++                                ",
"                                 +++++++++++++++++++++++++++++++                                ",
"                                                                                                ",
"                                                                                                ",
"                                                                                                ",
"                                                                                                ",
"                                                                                                ",
"                                                                                                ",
"                                                                                                ",
"                                                                                                ",
"                                                                                                ",
"                                                                                                ",
"                                                                                                ",
"                                                                                                ",
"                                                                                                ",
"                                                                                                ",
"                                                                                                ",
"                                                                                                ",
"                                                                                                ",
"                                                                                                ",
"                                                                                                "};
