/* XPM */
static char * four_coin_xpm[] = {
"96 96 2 1",
" 	c #000000",
".	c #FFFC1B",
"                                                                                                ",
"                                                                                                ",
"                                                                                                ",
"                                                                                                ",
"                                                                                                ",
"                                                                                                ",
"                                                                                                ",
"                                                                                                ",
"                                                                                                ",
"                                                                                                ",
"                                                                                                ",
"                                                                                                ",
"                              ....................................                              ",
"                              ....................................                              ",
"                              ....................................                              ",
"                              ....................................                              ",
"                              ....................................                              ",
"                              ....................................                              ",
"                              ....................................                              ",
"                              ....................................                              ",
"                              ....................................                              ",
"                     ...........................         ..................                     ",
"                     ...........................         ..................                     ",
"                     ...........................         ..................                     ",
"                     ...........................         ..................                     ",
"                     ...........................         ..................                     ",
"                     ...........................         ..................                     ",
"                     ...........................         ..................                     ",
"                     ...........................         ..................                     ",
"                     ...........................         ..................                     ",
"                     ...........................                  .........                     ",
"                     ...........................                  .........                     ",
"                     ...........................                  .........                     ",
"                     ...........................                  .........                     ",
"                     ...........................                  .........                     ",
"                     ...........................                  .........                     ",
"                     ...........................                  .........                     ",
"                     ...........................                  .........                     ",
"                     ...........................                  .........                     ",
"                     ....................................         .........                     ",
"                     ....................................         .........                     ",
"                     ....................................         .........                     ",
"                     ....................................         .........                     ",
"                     ....................................         .........                     ",
"                     ....................................         .........                     ",
"                     ....................................         .........                     ",
"                     ....................................         .........                     ",
"                     ....................................         .........                     ",
"                     ....................................         .........                     ",
"                     ....................................         .........                     ",
"                     ....................................         .........                     ",
"                     ....................................         .........                     ",
"                     ....................................         .........                     ",
"                     ....................................         .........                     ",
"                     ....................................         .........                     ",
"                     ....................................         .........                     ",
"                     ....................................         .........                     ",
"                     ...........................                  .........                     ",
"                     ...........................                  .........                     ",
"                     ...........................                  .........                     ",
"                     ...........................                  .........                     ",
"                     ...........................                  .........                     ",
"                     ...........................                  .........                     ",
"                     ...........................                  .........                     ",
"                     ...........................                  .........                     ",
"                     ...........................                  .........                     ",
"                     ...........................         ..................                     ",
"                     ...........................         ..................                     ",
"                     ...........................         ..................                     ",
"                     ...........................         ..................                     ",
"                     ...........................         ..................                     ",
"                     ...........................         ..................                     ",
"                     ...........................         ..................                     ",
"                     ...........................         ..................                     ",
"                     ...........................         ..................                     ",
"                              ....................................                              ",
"                              ....................................                              ",
"                              ....................................                              ",
"                              ....................................                              ",
"                              ....................................                              ",
"                              ....................................                              ",
"                              ....................................                              ",
"                              ....................................                              ",
"                              ....................................                              ",
"                                                                                                ",
"                                                                                                ",
"                                                                                                ",
"                                                                                                ",
"                                                                                                ",
"                                                                                                ",
"                                                                                                ",
"                                                                                                ",
"                                                                                                ",
"                                                                                                ",
"                                                                                                ",
"                                                                                                "};
