/* XPM */
static char * nine_xpm[] = {
"44 101 2 1",
" 	c #061740",
".	c #195DFD",
"        ............................        ",
"        ............................        ",
"        ............................        ",
"        ............................        ",
"        ............................        ",
"        ............................        ",
"        ............................        ",
"        ............................        ",
"........        ............        ........",
"........        ............        ........",
"........        ............        ........",
"........        ............        ........",
"........        ............        ........",
"........        ............        ........",
"........        ............        ........",
"........        ............        ........",
"................            ................",
"................            ................",
"................            ................",
"................            ................",
"................            ................",
"................            ................",
"................            ................",
"................            ................",
"................            ................",
"................            ................",
"................            ................",
"................            ................",
"................            ................",
"................            ................",
"................            ................",
"................            ................",
"................            ................",
"................            ................",
"................            ................",
"................            ................",
"................            ................",
"................            ................",
"........        ............        ........",
"........        ............        ........",
"........        ............        ........",
"........        ............        ........",
"........        ............        ........",
"........        ............        ........",
"........        ............        ........",
"........        ............        ........",
"        ............................        ",
"        ............................        ",
"        ............................        ",
"        ............................        ",
"        ............................        ",
"        ............................        ",
"        ............................        ",
"        ............................        ",
"                                    ........",
"                                    ........",
"                                    ........",
"                                    ........",
"                                    ........",
"                                    ........",
"                                    ........",
"                                    ........",
"                                    ........",
"                            ................",
"                            ................",
"                            ................",
"                            ................",
"                            ................",
"                            ................",
"                            ................",
"                            ................",
"                            ................",
"                            ................",
"                            ................",
"                            ................",
"                            ................",
"                            ................",
"                            ................",
"                            ................",
"                            ................",
"                            ................",
"                            ................",
"                            ................",
"                            ................",
"                            ................",
"                ............        ........",
"                ............        ........",
"                ............        ........",
"                ............        ........",
"                ............        ........",
"                ............        ........",
"                ............        ........",
"                ............        ........",
"        ............................        ",
"        ............................        ",
"        ............................        ",
"        ............................        ",
"        ............................        ",
"        ............................        ",
"        ............................        ",
"        ............................        "};
