/* XPM */
static char * smoll_height_xpm[] = {
"96 108 4 1",
" 	c None",
".	c #000000",
"+	c #195DFD",
"@	c #1851D5",
"                                                                                                ",
"                                                                                                ",
"                                                                                                ",
"                                                                                                ",
"                                                                                                ",
"                                                                                                ",
"                                                                                                ",
"                                                                                                ",
"                                                                                                ",
"                                                                                                ",
"                                                                                                ",
"                                                                                                ",
"                                                                                                ",
"                                                                                                ",
"                                                                                                ",
"                                                                                                ",
"                                                                                                ",
"                                                                                                ",
"                                                                                                ",
"                                                                                                ",
"                                                                                                ",
"                                                                                                ",
"                    @@@@@@@@@@@@@@@@                        @@@@@@@@                            ",
"                    @++++++++++++++@                        @++++++@                            ",
"                    @++++++++++++++@                        @++++++@                            ",
"                    @++++++++++++++@                        @++++++@                            ",
"                    @++++++++++++++@                        @++++++@                            ",
"                    @++++++++++++++@                        @++++++@                            ",
"                    @++++++++++++++@                        @++++++@                            ",
"                    @@@@@@@@@++++++@                        @++++++@                            ",
"                            @++++++@@@@@@@@@                @++++++@@@@@@@@@                    ",
"                            @++++++++++++++@                @++++++++++++++@                    ",
"                            @++++++++++++++@                @++++++++++++++@                    ",
"                            @++++++++++++++@                @++++++++++++++@                    ",
"                            @++++++++++++++@                @++++++++++++++@                    ",
"                            @++++++++++++++@                @++++++++++++++@                    ",
"                            @++++++++++++++@                @++++++++++++++@                    ",
"                            @++++++++++++++@                @++++++++++++++@                    ",
"                            @++++++++++++++@                @++++++++++++++@                    ",
"                            @++++++++++++++@@@@@@@@@@@@@@@@@@++++++++++++++@                    ",
"                            @++++++++++++++++++++++++++++++++++++++++++++++@                    ",
"                            @++++++++++++++++++++++++++++++++++++++++++++++@                    ",
"                            @++++++++++++++++++++++++++++++++++++++++++++++@                    ",
"                            @++++++++++++++++++++++++++++++++++++++++++++++@                    ",
"                            @++++++++++++++++++++++++++++++++++++++++++++++@                    ",
"                            @++++++++++++++++++++++++++++++++++++++++++++++@                    ",
"                            @+++++++++++++++........++++++++........+++++++@                    ",
"                            @+++++++++++++++........++++++++........+++++++@                    ",
"                            @+++++++++++++++........++++++++........+++++++@                    ",
"                            @+++++++++++++++........++++++++........+++++++@                    ",
"                            @+++++++++++++++........++++++++........+++++++@                    ",
"                            @+++++++++++++++........++++++++........+++++++@                    ",
"                            @+++++++++++++++........++++++++........+++++++@                    ",
"                            @+++++++++++++++........++++++++........+++++++@                    ",
"                            @+++++++++++++++........++++++++........+++++++@                    ",
"                            @+++++++++++++++........++++++++........+++++++@                    ",
"                            @+++++++++++++++........++++++++........+++++++@                    ",
"                            @+++++++++++++++........++++++++........+++++++@                    ",
"                            @+++++++++++++++........++++++++........+++++++@                    ",
"                            @+++++++++++++++........++++++++........+++++++@                    ",
"                            @+++++++++++++++........++++++++........+++++++@                    ",
"                            @+++++++++++++++........++++++++........+++++++@                    ",
"                            @+++++++++++++++........++++++++........@@@@@@@@                    ",
"                            @++++++++++++++++++++++++++++++++++++++@                            ",
"                            @++++++++++++++++++++++++++++++++++++++@                            ",
"                            @++++++++++++++++++++++++++++++++++++++@                            ",
"                            @++++++++++++++++++++++++++++++++++++++@                            ",
"                            @++++++++++++++++++++++++++++++++++++++@                            ",
"                            @++++++++++++++++++++++++++++++++++++++@                            ",
"                            @++++++++++++++@@@@@@@@@@++++++++++++++@                            ",
"                            @++++++++++++++@        @++++++++++++++@                            ",
"                            @++++++++++++++@        @++++++++++++++@                            ",
"                            @++++++++++++++@        @++++++++++++++@                            ",
"                            @++++++++++++++@        @++++++++++++++@                            ",
"                            @++++++++++++++@        @++++++++++++++@                            ",
"                            @++++++++++++++@        @++++++++++++++@                            ",
"                            @++++++++++++++@        @++++++++++++++@                            ",
"                            @++++++@@@@@@@@@        @++++++@@@@@@@@@                            ",
"                            @++++++@                @++++++@                                    ",
"                            @++++++@                @++++++@                                    ",
"                            @++++++@                @++++++@                                    ",
"                            @++++++@                @++++++@                                    ",
"                            @++++++@                @++++++@                                    ",
"                            @++++++@                @++++++@                                    ",
"                            @++++++@                @++++++@                                    ",
"                            @++++++@                @++++++@                                    ",
"                            @@@@@@@@                @@@@@@@@                                    ",
"                                                                                                ",
"                                                                                                ",
"                                                                                                ",
"                                                                                                ",
"                                                                                                ",
"                                                                                                ",
"                                                                                                ",
"                                                                                                ",
"                                                                                                ",
"                                                                                                ",
"                                                                                                ",
"                                                                                                ",
"                                                                                                ",
"                                                                                                ",
"                                                                                                ",
"                                                                                                ",
"                                                                                                ",
"                                                                                                ",
"                                                                                                ",
"                                                                                                ",
"                                                                                                "};
