/* XPM */
static char * smoll_mirrored_height_xpm[] = {
"96 108 4 1",
" 	c None",
".	c #1851D5",
"+	c #195DFD",
"@	c #000000",
"                                                                                                ",
"                                                                                                ",
"                                                                                                ",
"                                                                                                ",
"                                                                                                ",
"                                                                                                ",
"                                                                                                ",
"                                                                                                ",
"                                                                                                ",
"                                                                                                ",
"                                                                                                ",
"                                                                                                ",
"                                                                                                ",
"                                                                                                ",
"                                                                                                ",
"                                                                                                ",
"                                                                                                ",
"                                                                                                ",
"                                                                                                ",
"                                                                                                ",
"                                                                                                ",
"                                                                                                ",
"                                                                                                ",
"                                                                                                ",
"                                                                                                ",
"                            ........                        ................                    ",
"                            .++++++.                        .++++++++++++++.                    ",
"                            .++++++.                        .++++++++++++++.                    ",
"                            .++++++.                        .++++++++++++++.                    ",
"                            .++++++.                        .++++++++++++++.                    ",
"                            .++++++.                        .++++++++++++++.                    ",
"                            .++++++.                        .++++++++++++++.                    ",
"                            .++++++.                        .++++++.........                    ",
"                    .........++++++.                .........++++++.                            ",
"                    .++++++++++++++.                .++++++++++++++.                            ",
"                    .++++++++++++++.                .++++++++++++++.                            ",
"                    .++++++++++++++.                .++++++++++++++.                            ",
"                    .++++++++++++++.                .++++++++++++++.                            ",
"                    .++++++++++++++.                .++++++++++++++.                            ",
"                    .++++++++++++++.                .++++++++++++++.                            ",
"                    .++++++++++++++.                .++++++++++++++.                            ",
"                    .++++++++++++++.                .++++++++++++++.                            ",
"                    .++++++++++++++..................++++++++++++++.                            ",
"                    .++++++++++++++++++++++++++++++++++++++++++++++.                            ",
"                    .++++++++++++++++++++++++++++++++++++++++++++++.                            ",
"                    .++++++++++++++++++++++++++++++++++++++++++++++.                            ",
"                    .++++++++++++++++++++++++++++++++++++++++++++++.                            ",
"                    .++++++++++++++++++++++++++++++++++++++++++++++.                            ",
"                    .++++++++++++++++++++++++++++++++++++++++++++++.                            ",
"                    .+++++++@@@@@@@@++++++++@@@@@@@@+++++++++++++++.                            ",
"                    .+++++++@@@@@@@@++++++++@@@@@@@@+++++++++++++++.                            ",
"                    .+++++++@@@@@@@@++++++++@@@@@@@@+++++++++++++++.                            ",
"                    .+++++++@@@@@@@@++++++++@@@@@@@@+++++++++++++++.                            ",
"                    .+++++++@@@@@@@@++++++++@@@@@@@@+++++++++++++++.                            ",
"                    .+++++++@@@@@@@@++++++++@@@@@@@@+++++++++++++++.                            ",
"                    .+++++++@@@@@@@@++++++++@@@@@@@@+++++++++++++++.                            ",
"                    .+++++++@@@@@@@@++++++++@@@@@@@@+++++++++++++++.                            ",
"                    .+++++++@@@@@@@@++++++++@@@@@@@@+++++++++++++++.                            ",
"                    .+++++++@@@@@@@@++++++++@@@@@@@@+++++++++++++++.                            ",
"                    .+++++++@@@@@@@@++++++++@@@@@@@@+++++++++++++++.                            ",
"                    .+++++++@@@@@@@@++++++++@@@@@@@@+++++++++++++++.                            ",
"                    .+++++++@@@@@@@@++++++++@@@@@@@@+++++++++++++++.                            ",
"                    .+++++++@@@@@@@@++++++++@@@@@@@@+++++++++++++++.                            ",
"                    .+++++++@@@@@@@@++++++++@@@@@@@@+++++++++++++++.                            ",
"                    .+++++++@@@@@@@@++++++++@@@@@@@@+++++++++++++++.                            ",
"                    ........@@@@@@@@++++++++@@@@@@@@+++++++++++++++.                            ",
"                            .++++++++++++++++++++++++++++++++++++++.                            ",
"                            .++++++++++++++++++++++++++++++++++++++.                            ",
"                            .++++++++++++++++++++++++++++++++++++++.                            ",
"                            .++++++++++++++++++++++++++++++++++++++.                            ",
"                            .++++++++++++++++++++++++++++++++++++++.                            ",
"                            .++++++++++++++++++++++++++++++++++++++.                            ",
"                            .++++++++++++++..........++++++++++++++.                            ",
"                            .++++++++++++++.        .++++++++++++++.                            ",
"                            .++++++++++++++.        .++++++++++++++.                            ",
"                            .++++++++++++++.        .++++++++++++++.                            ",
"                            .++++++++++++++.        .++++++++++++++.                            ",
"                            .++++++++++++++.        .++++++++++++++.                            ",
"                            .++++++++++++++.        .++++++++++++++.                            ",
"                            .++++++++++++++.        .++++++++++++++.                            ",
"                            .........++++++.        .........++++++.                            ",
"                                    .++++++.                .++++++.                            ",
"                                    .++++++.                .++++++.                            ",
"                                    .++++++.                .++++++.                            ",
"                                    .++++++.                .++++++.                            ",
"                                    .++++++.                .++++++.                            ",
"                                    .++++++.                .++++++.                            ",
"                                    .++++++.                .++++++.                            ",
"                                    .++++++.                .++++++.                            ",
"                                    ........                ........                            ",
"                                                                                                ",
"                                                                                                ",
"                                                                                                ",
"                                                                                                ",
"                                                                                                ",
"                                                                                                ",
"                                                                                                ",
"                                                                                                ",
"                                                                                                ",
"                                                                                                ",
"                                                                                                ",
"                                                                                                ",
"                                                                                                ",
"                                                                                                ",
"                                                                                                ",
"                                                                                                ",
"                                                                                                ",
"                                                                                                "};
