/* XPM */
static char * three_coin_height_xpm[] = {
"96 108 3 1",
" 	c None",
".	c #FFFC1B",
"+	c #000000",
"                                                                                                ",
"                                                                                                ",
"                                                                                                ",
"                                                                                                ",
"                                                                                                ",
"                                                                                                ",
"                                                                                                ",
"                                                                                                ",
"                                                                                                ",
"                                                                                                ",
"                                                                                                ",
"                                                                                                ",
"                                                                                                ",
"                                                                                                ",
"                                                                                                ",
"                                                                                                ",
"                                                                                                ",
"                                                                                                ",
"                                                                                                ",
"                                                                                                ",
"                                                                                                ",
"                                        .................                                       ",
"                                        .................                                       ",
"                                        .................                                       ",
"                                        .................                                       ",
"                                        .................                                       ",
"                                        .................                                       ",
"                                        .................                                       ",
"                                        .................                                       ",
"                                .................................                               ",
"                                .................................                               ",
"                                .................................                               ",
"                                .................................                               ",
"                                .................................                               ",
"                                .................................                               ",
"                                .................................                               ",
"                                .................................                               ",
"                                .................................                               ",
"                                .................................                               ",
"                                .................................                               ",
"                                .................................                               ",
"                                .................................                               ",
"                                .................................                               ",
"                                .................................                               ",
"                                .................................                               ",
"                                .................................                               ",
"                                .................................                               ",
"                                .................................                               ",
"                                .................................                               ",
"                                .................................                               ",
"                                .................................                               ",
"                                .................................                               ",
"                                .................................                               ",
"                                .................................                               ",
"                                .................................                               ",
"                                .................................                               ",
"                                .................................                               ",
"                                .................................                               ",
"                                .................................                               ",
"                                .................................                               ",
"                                .................................                               ",
"                                .................................                               ",
"                                .................................                               ",
"                                .................................                               ",
"                                .................................                               ",
"                                .................................                               ",
"                                .................................                               ",
"                                .................................                               ",
"                                .................................                               ",
"                                .................................                               ",
"                                .................................                               ",
"                                .................................                               ",
"                                .................................                               ",
"                                .................................                               ",
"                                .................................                               ",
"                                .................................                               ",
"                                .................................                               ",
"                                .................................                               ",
"                                .................................                               ",
"                                        .................                                       ",
"                                        .................                                       ",
"                                        .................                                       ",
"                                        .................                                       ",
"                                        .................                                       ",
"                                        .................                                       ",
"                                        .................                                       ",
"                                        .................                                       ",
"                                                                                                ",
"                                                                                                ",
"                                                                                                ",
"                                                                                                ",
"                                                                                                ",
"                                                                                                ",
"                                                                                                ",
"                                                                                                ",
"                                                                                                ",
"                                                                                                ",
"                                                                                                ",
"                                                                                                ",
"                                                                                                ",
"                                                                                                ",
"                                                                                                ",
"                                                                                                ",
"                                                                                                ",
"                                                                                                ",
"                                                                                                ",
"                                                                                                ",
"                                                                                                "};
