/* XPM */
static char * three_xpm[] = {
"38 85 2 1",
" 	c #081A44",
".	c #195DFD",
"       ........................       ",
"       ........................       ",
"       ........................       ",
"       ........................       ",
"       ........................       ",
"       ........................       ",
"       ........................       ",
"              ..........       .......",
"              ..........       .......",
"              ..........       .......",
"              ..........       .......",
"              ..........       .......",
"              ..........       .......",
"              ..........       .......",
"                        ..............",
"                        ..............",
"                        ..............",
"                        ..............",
"                        ..............",
"                        ..............",
"                        ..............",
"                        ..............",
"                        ..............",
"                        ..............",
"                        ..............",
"                        ..............",
"                        ..............",
"                        ..............",
"                        ..............",
"                        ..............",
"                        ..............",
"                        ..............",
"              ..........       .......",
"              ..........       .......",
"              ..........       .......",
"              ..........       .......",
"              ..........       .......",
"              ..........       .......",
"              ..........       .......",
"       ........................       ",
"       ........................       ",
"       ........................       ",
"       ........................       ",
"       ........................       ",
"       ........................       ",
"       ........................       ",
"                               .......",
"                               .......",
"                               .......",
"                               .......",
"                               .......",
"                               .......",
"                               .......",
"                        ..............",
"                        ..............",
"                        ..............",
"                        ..............",
"                        ..............",
"                        ..............",
"                        ..............",
"                        ..............",
"                        ..............",
"                        ..............",
"                        ..............",
"                        ..............",
"                        ..............",
"                        ..............",
"                        ..............",
"                        ..............",
"                        ..............",
"                        ..............",
"              ..........       .......",
"              ..........       .......",
"              ..........       .......",
"              ..........       .......",
"              ..........       .......",
"              ..........       .......",
"              ..........       .......",
"       ........................       ",
"       ........................       ",
"       ........................       ",
"       ........................       ",
"       ........................       ",
"       ........................       ",
"       ........................       "};
