/* XPM */
static char * two_coin_xpm[] = {
"96 96 3 1",
" 	c None",
".	c #FFFC1B",
"+	c #000000",
"                                                                                                ",
"                                                                                                ",
"                                                                                                ",
"                                                                                                ",
"                                                                                                ",
"                                                                                                ",
"                                                                                                ",
"                                                                                                ",
"                                                                                                ",
"                                                                                                ",
"                                                                                                ",
"                                                                                                ",
"                              ....................................                              ",
"                              ....................................                              ",
"                              ....................................                              ",
"                              ....................................                              ",
"                              ....................................                              ",
"                              ....................................                              ",
"                              ....................................                              ",
"                              ....................................                              ",
"                              ....................................                              ",
"                     ..................+++++++++...........................                     ",
"                     ..................+++++++++...........................                     ",
"                     ..................+++++++++...........................                     ",
"                     ..................+++++++++...........................                     ",
"                     ..................+++++++++...........................                     ",
"                     ..................+++++++++...........................                     ",
"                     ..................+++++++++...........................                     ",
"                     ..................+++++++++...........................                     ",
"                     ..................+++++++++...........................                     ",
"                     .........++++++++++++++++++...........................                     ",
"                     .........++++++++++++++++++...........................                     ",
"                     .........++++++++++++++++++...........................                     ",
"                     .........++++++++++++++++++...........................                     ",
"                     .........++++++++++++++++++...........................                     ",
"                     .........++++++++++++++++++...........................                     ",
"                     .........++++++++++++++++++...........................                     ",
"                     .........++++++++++++++++++...........................                     ",
"                     .........++++++++++++++++++...........................                     ",
"                     .........+++++++++....................................                     ",
"                     .........+++++++++....................................                     ",
"                     .........+++++++++....................................                     ",
"                     .........+++++++++....................................                     ",
"                     .........+++++++++....................................                     ",
"                     .........+++++++++....................................                     ",
"                     .........+++++++++....................................                     ",
"                     .........+++++++++....................................                     ",
"                     .........+++++++++....................................                     ",
"                     .........+++++++++....................................                     ",
"                     .........+++++++++....................................                     ",
"                     .........+++++++++....................................                     ",
"                     .........+++++++++....................................                     ",
"                     .........+++++++++....................................                     ",
"                     .........+++++++++....................................                     ",
"                     .........+++++++++....................................                     ",
"                     .........+++++++++....................................                     ",
"                     .........+++++++++....................................                     ",
"                     .........++++++++++++++++++...........................                     ",
"                     .........++++++++++++++++++...........................                     ",
"                     .........++++++++++++++++++...........................                     ",
"                     .........++++++++++++++++++...........................                     ",
"                     .........++++++++++++++++++...........................                     ",
"                     .........++++++++++++++++++...........................                     ",
"                     .........++++++++++++++++++...........................                     ",
"                     .........++++++++++++++++++...........................                     ",
"                     .........++++++++++++++++++...........................                     ",
"                     ..................+++++++++...........................                     ",
"                     ..................+++++++++...........................                     ",
"                     ..................+++++++++...........................                     ",
"                     ..................+++++++++...........................                     ",
"                     ..................+++++++++...........................                     ",
"                     ..................+++++++++...........................                     ",
"                     ..................+++++++++...........................                     ",
"                     ..................+++++++++...........................                     ",
"                     ..................+++++++++...........................                     ",
"                              ....................................                              ",
"                              ....................................                              ",
"                              ....................................                              ",
"                              ....................................                              ",
"                              ....................................                              ",
"                              ....................................                              ",
"                              ....................................                              ",
"                              ....................................                              ",
"                              ....................................                              ",
"                                                                                                ",
"                                                                                                ",
"                                                                                                ",
"                                                                                                ",
"                                                                                                ",
"                                                                                                ",
"                                                                                                ",
"                                                                                                ",
"                                                                                                ",
"                                                                                                ",
"                                                                                                ",
"                                                                                                "};
