/* XPM */
static char * wall_height_xpm[] = {
"96 108 2 1",
" 	c #FFFFFF",
".	c #000000",
"                                                                                                ",
"                                                                                                ",
"                                                                                                ",
"                                                                                                ",
"                                                                                                ",
"             ...........                        .......                 ...........             ",
"            ............                        .......                 ............            ",
"           .............                        .......                 .............           ",
"           .............                        .......                 ..............          ",
"          ..............                        .......                 ..............          ",
"         ...............                        .......                 ...............         ",
"        ................................................................................        ",
"       ..................................................................................       ",
"      ....................................................................................      ",
"     ......................................................................................     ",
"    ........................................................................................    ",
"    ........................................................................................    ",
"    ........................................................................................    ",
"    ...                         .......                         ........                ....    ",
"    ...                         .......                         ........                ....    ",
"    ...                         .......                         ........                ....    ",
"    ...                         .......                         ........                ....    ",
"    ...                         .......                         ........                ....    ",
"    ...                         .......                         ........                ....    ",
"    ...                         .......                         ........                ....    ",
"    ...                         .......                         ........                ....    ",
"    ...                         .......                         ........                ....    ",
"    ....                        ........                        .........               ....    ",
"    ........................................................................................    ",
"    ........................................................................................    ",
"    ........................................................................................    ",
"    ........................................................................................    ",
"    ........................................................................................    ",
"    ........................................................................................    ",
"    ........................................................................................    ",
"    ........................................................................................    ",
"        .......                 .......         .......                         .......         ",
"        .......                 .......         .......                         .......         ",
"        .......                 .......         .......                         .......         ",
"        .......                 .......         .......                         .......         ",
"        .......                 .......         .......                         .......         ",
"        .......                 .......         .......                         .......         ",
"        .......                 .......         .......                         .......         ",
"        .......                 .......         .......                         .......         ",
"        .......                 .......         .......                         .......         ",
"        .......                 .......         .......                         .......         ",
"        .......                 .......         .......                         .......         ",
"    ........................................................................................    ",
"    ........................................................................................    ",
"    ........................................................................................    ",
"    ........................................................................................    ",
"    ........................................................................................    ",
"    ........................................................................................    ",
"    ........................................................................................    ",
"                        .........                              .........                        ",
"                        .........                              .........                        ",
"                        .........                              .........                        ",
"                        .........                              .........                        ",
"                        .........                              .........                        ",
"                        .........                              .........                        ",
"                        .........                              .........                        ",
"                        .........                              .........                        ",
"                        .........                              .........                        ",
"                        .........                              .........                        ",
"                                                                                                ",
"    ...          .......                                .......                         ....    ",
"    ...          .......                                .......                         ....    ",
"    ...          .......                                .......                         ....    ",
"    ...          .......                                .......                         ....    ",
"    ...          .......                                .......                         ....    ",
"    ...          .......                                .......                         ....    ",
"    ...          .......                                .......                         ....    ",
"    ...          .......                                .......                         ....    ",
"    ...          .......                                .......                         ....    ",
"    ........................................................................................    ",
"    ........................................................................................    ",
"    ........................................................................................    ",
"    ........................................................................................    ",
"    ........................................................................................    ",
"    ........................................................................................    ",
"    ........................................................................................    ",
"    ...                         .......                 .......                 ............    ",
"    ...                         .......                 .......                 ............    ",
"    ...                         .......                 .......                 ............    ",
"    ...                         .......                 .......                 ............    ",
"    ...                         .......                 .......                 ............    ",
"    ...                         .......                 .......                 ............    ",
"    ...                         .......                 .......                 ............    ",
"    ...                         .......                 .......                 ............    ",
"    ...                         .......                 .......                 ............    ",
"    ...                         .......                 .......                 ............    ",
"    ...                         .......                 .......                 ............    ",
"    ........................................................................................    ",
"     ......................................................................................     ",
"      ....................................................................................      ",
"       ..................................................................................       ",
"        .................................................................................       ",
"        ................................................................................        ",
"         ..............................................................................         ",
"          .....................                 .......                 ..............          ",
"           ....................                 .......                 .............           ",
"            ...................                 .......                 ............            ",
"             ..................                 .......                 ...........             ",
"                                                                                                ",
"                                                                                                ",
"                                                                                                ",
"                                                                                                ",
"                                                                                                "};
