/* XPM */
static char *de47fb5e43384c8dcd9c9f2ab73c4febYUYkL6U6nskHdx22[] = {
/* columns rows colors chars-per-pixel */
"96 96 2 1 ",
"  c black",
". c white",
/* pixels */
"                                                                                                ",
"                                                                                                ",
"                                                                                                ",
"                                                                                                ",
"                                                                                                ",
"                                                                                                ",
"                                                                                                ",
"                                                                                                ",
"                                                                                                ",
"                                                                                                ",
"                                                                                                ",
"                                                                                                ",
"                                                                                                ",
"                                                                                                ",
"                                                                                                ",
"                                                                                                ",
"                                 ..............................                                 ",
"                                 ..............................                                 ",
"                                 ..............................                                 ",
"                                 ..............................                                 ",
"                                 ..............................                                 ",
"                                 ..............................                                 ",
"                                 ..............................                                 ",
"                         ........                              ........                         ",
"                         ........                              ........                         ",
"                         ........                              ........                         ",
"                         ........                              ........                         ",
"                         ........                              ........                         ",
"                         ........                              ........                         ",
"                         ........                              ........                         ",
"                         ........                              ........                         ",
"                  .......                                              .......                  ",
"                  .......               ................               .......                  ",
"                  .......               ................               .......                  ",
"                  .......               ................               .......                  ",
"                  .......               ................               .......                  ",
"                  .......               ................               .......                  ",
"                  .......               ................               .......                  ",
"                  .......               ................               .......                  ",
"                  .......        .......                .......        .......                  ",
"                  .......        .......                .......        .......                  ",
"                  .......        .......                .......        .......                  ",
"                  .......        .......                .......        .......                  ",
"                  .......        .......                .......        .......                  ",
"                  .......        .......                .......        .......                  ",
"                  .......        .......                .......        .......                  ",
"                  .......        .......                .......        .......                  ",
"                  .......        .......                .......        .......                  ",
"                  .......        .......                .......        .......                  ",
"                  .......        .......                .......        .......                  ",
"                  .......        .......                .......        .......                  ",
"                  .......        .......                .......        .......                  ",
"                  .......        .......                .......        .......                  ",
"                  .......        .......                .......        .......                  ",
"                  .......        .......                .......        .......                  ",
"                  .......        .......                .......        .......                  ",
"                  .......               ................               .......                  ",
"                  .......               ................               .......                  ",
"                  .......               ................               .......                  ",
"                  .......               ................               .......                  ",
"                  .......               ................               .......                  ",
"                  .......               ................               .......                  ",
"                  .......               ................               .......                  ",
"                  .......                                              .......                  ",
"                         ........                              ........                         ",
"                         ........                              ........                         ",
"                         ........                              ........                         ",
"                         ........                              ........                         ",
"                         ........                              ........                         ",
"                         ........                              ........                         ",
"                         ........                              ........                         ",
"                         ........                              ........                         ",
"                                 ..............................                                 ",
"                                 ..............................                                 ",
"                                 ..............................                                 ",
"                                 ..............................                                 ",
"                                 ..............................                                 ",
"                                 ..............................                                 ",
"                                 ..............................                                 ",
"                                 ..............................                                 ",
"                                                                                                ",
"                                                                                                ",
"                                                                                                ",
"                                                                                                ",
"                                                                                                ",
"                                                                                                ",
"                                                                                                ",
"                                                                                                ",
"                                                                                                ",
"                                                                                                ",
"                                                                                                ",
"                                                                                                ",
"                                                                                                ",
"                                                                                                ",
"                                                                                                ",
"                                                                                                "
};
