/* XPM */
static char *_609cfd1540743e7f97805072aaff275YxKagjppLCq6E1cc[] = {
/* columns rows colors chars-per-pixel */
"96 96 5 1 ",
"  c #010101",
". c gray2",
"X c gray3",
"o c gray98",
"O c white",
/* pixels */
"X                                                                                               ",
"                                                                                                ",
"                                                                                                ",
"                                                                                                ",
"                                                                                                ",
"                          OOOOOOOOO        OOOOOOOOO       OOOOOOOOO                            ",
"                          OOOOOOOOO        OOOOOOOOO       OOOOOOOOO                            ",
"                          OOOOOOOOO        OOOOOOOOO       OOOOOOOOO                            ",
"                          OOOOOOOOO        OOOOOOOOO       OOOOOOOOO                            ",
"                          OOOOOOOOO        OOOOOOOOO       OOOOOOOOO                            ",
"                          OOOOOOOOO        OOOOOOOOO       OOOOOOOOO                            ",
"                          OOOOOOOOO        OOOOOOOOO       OOOOOOOOO                            ",
"                          OOOOOOOOO        OOOOOOOOO       OOOOOOOOO                            ",
"                          OOOOOOOOO        OOOOOOOOO       OOOOOOOOO                            ",
"                                                                                                ",
"                                                                                                ",
"                                                                                                ",
"                                                                                                ",
"                                                                                                ",
"                                                                                                ",
"                                                                                                ",
"          OOOOOOOOO                OOOOOOOOOOOOOOOOOOOOOOOOO                OOOOOOOOO           ",
"          OOOOOOOOO                OOOOOOOOOOOOOOOOOOOOOOOOO                OOOOOOOOO           ",
"          OOOOOOOOO                OOOOOOOOOOOOOOOOOOOOOOOOO                OOOOOOOOO           ",
"          OOOOOOOOO                OOOOOOOOOOOOOOOOOOOOOOOOO                OOOOOOOOO           ",
"          OOOOOOOOO                OOOOOOOOOOOOOOOOOOOOOOOOO                OOOOOOOOO           ",
"          OOOOOOOOO                OOOOOOOOOOOOOOOOOOOOOOOOO                OOOOOOOOO           ",
"          OOOOOOOOO                OOOOOOOOOOOOOOOOOOOOOOOOO                OOOOOOOOO           ",
"          OOOOOOOOO                OOOOOOOOOOOOOOOOOOOOOOOOO                OOOOOOOOO           ",
"          OOOOOOOOO               XOOOOOOOOOOOOOOOOOOOOOOOOO                OOOOOOOOO           ",
"                           OOOOOOOO                         OOOOOOOO                            ",
"                           OOOOOOOO                         OOOOOOOO                            ",
"                           OOOOOOOO                         OOOOOOOO                            ",
"                           OOOOOOOO                         OOOOOOOO                            ",
"                           OOOOOOOO                         OOOOOOOO                            ",
"                           OOOOOOOO                         OOOOOOOO                            ",
"                           OOOOOOOO                         OOOOOOOO                            ",
"          OOOOOOOOO        OOOOOOOO                         OOOOOOOO        OOOOOOOOO           ",
"          OOOOOOOOO        OOOOOOOO                         OOOOOOOO        OOOOOOOOO           ",
"          OOOOOOOOO        OOOOOOOO                         OOOOOOOO        OOOOOOOOO           ",
"          OOOOOOOOO        OOOOOOOO                         OOOOOOOO        OOOOOOOOO           ",
"          OOOOOOOOO        OOOOOOOO                         OOOOOOOO        OOOOOOOOO           ",
"          OOOOOOOOO        OOOOOOOO                         OOOOOOOO        OOOOOOOOO           ",
"          OOOOOOOOO        OOOOOOOO                         OOOOOOOO        OOOOOOOOO           ",
"          OOOOOOOOO       .OOOOOOOO                         OOOOOOOO        OOOOOOOOO           ",
"          OOOOOOOOO        OOOOOOOO                         OOOOOOOO        OOOOOOOOO           ",
"                                   OOOOOOOO        OOOOOOOOO                                    ",
"                                   OOOOOOOO        OOOOOOOOO                                    ",
"                                   OOOOOOOO        OOOOOOOOO                                    ",
"                                   OOOOOOOO        OOOOOOOOO                                    ",
"                                   OOOOOOOO        OOOOOOOOO                                    ",
"                                   OOOOOOOO        OOOOOOOOO                                    ",
"                                   OOOOOOOO        OOOOOOOOO                                    ",
"          OOOOOOOOO                OOOOOOOO        OOOOOOOOO                OOOOOOOOO           ",
"          OOOOOOOOO                OOOOOOOO        OOOOOOOOO                OOOOOOOOO           ",
"          OOOOOOOOO                OOOOOOOO        OOOOOOOOO                OOOOOOOOO           ",
"          OOOOOOOOO                OOOOOOOO        OOOOOOOOO                OOOOOOOOO           ",
"          OOOOOOOOO                OOOOOOOO        OOOOOOOOO                OOOOOOOOO           ",
"          OOOOOOOOO                OOOOOOOO        OOOOOOOOO                OOOOOOOOO           ",
"          OOOOOOOOO                OOOOOOOO        OOOOOOOOO                OOOOOOOOO           ",
"          OOOOOOOOO                OOOOOOOO        OOOOOOOOO                OOOOOOOOO           ",
"          OOOOOOOOO                OOOOOOOO        OOOOOOOOO                OOOOOOOOO           ",
"                                   OOOOOOOO                 OOOOOOOO                            ",
"                                   OOOOOOOO                 OOOOOOOO                            ",
"                                   OOOOOOOO                 OOOOOOOO                            ",
"                                   OOOOOOOO                 OOOOOOOO                            ",
"                                   OOOOOOOO                 OOOOOOOO                            ",
"                                   OOOOOOOO                 OOOOOOOO                            ",
"                                   OOOOOOOO                 OOOOOOOO                            ",
"          OOOOOOOOO                OOOOOOOO.                OOOOOOOO        OOOOOOOOO           ",
"          OOOOOOOOO                OOOOOOOOOOOOOOOOOOOOOOOOOOOOOOOOO        OOOOOOOOO           ",
"          OOOOOOOOO                OOOOOOOOOOOOOOOOOOOOOOOOOOOOOOOOO        OOOOOOOOO           ",
"          OOOOOOOOO                OOOOOOOOOOOOOOOOOOOOOOOOOOOOOOOOO        OOOOOOOOO           ",
"          OOOOOOOOO                OOOOOOOOOOOOOOOOOOOOOOOOOOOOOOOOO        OOOOOOOOO           ",
"          OOOOOOOOO                OOOOOOOOOOOOOOOOOOOOOOOOOOOOOOOOO        OOOOOOOOO           ",
"          OOOOOOOOO                OOOOOOOOOOOOOOOOOOOOOOOOOOOOOOOOO        OOOOOOOOO           ",
"          OOOOOOOOO                OOOOOOOOOOOOOOOOOOOOOOOOOOOOOOOOO        OOOOOOOOO           ",
"          OOOOOOOOo                OOOOOOOOOOOOOOOOOOOOOOOOOOOOOOOOO        OOOOOOOOO           ",
"                                                                                                ",
"                                                                                                ",
"                                                                                                ",
"                                                                                                ",
"                                                                                                ",
"                                                                                                ",
"                                                                                                ",
"          OOOOOOOOO       OOOOOOOOO        OOOOOOOOO       OOOOOOOOO        OOOOOOOOO           ",
"          OOOOOOOOO       OOOOOOOOO        OOOOOOOOO       OOOOOOOOO        OOOOOOOOO           ",
"          OOOOOOOOO       OOOOOOOOO        OOOOOOOOO       OOOOOOOOO        OOOOOOOOO           ",
"          OOOOOOOOO       OOOOOOOOO        OOOOOOOOO       OOOOOOOOO        OOOOOOOOO           ",
"          OOOOOOOOO       OOOOOOOOO        OOOOOOOOO       OOOOOOOOO        OOOOOOOOO           ",
"          OOOOOOOOO       OOOOOOOOO        OOOOOOOOO       OOOOOOOOO        OOOOOOOOO           ",
"          OOOOOOOOO       OOOOOOOOO        OOOOOOOOO       OOOOOOOOO        OOOOOOOOO           ",
"          OOOOOOOOO       OOOOOOOOO        OOOOOOOOO       OOOOOOOOO        OOOOOOOOO           ",
"          OOOOOOOOO       OOOOOOOOO        OOOOOOOOO       OOOOOOOOo        OOOOOOOOO           ",
"                                                                                                ",
"                                                                                                "
};
