/* XPM */
static char *b6e9fa5934b1492bfe3727bd529f85cbNV80PUKqmbelc6hp[] = {
/* columns rows colors chars-per-pixel */
"96 96 15 1 ",
"  c white",
". c black",
"X c gray6",
"o c #EFEFEF",
"O c #505050",
"+ c gray83",
"@ c #A5A5A5",
"# c #AFAFAF",
"$ c #5A5A5A",
"% c #F6F6F6",
"& c gray21",
"* c #E1E1E1",
"= c #B4B4B4",
"- c #717171",
"; c gray77",
/* pixels */
"%                                                                                              %",
"                                                                                                ",
"                                                                                                ",
"           %*+++++++++++                        +++++++*                +++++++++++*%           ",
"          %#&..........Xo                      oX......O               oX..........&#%      %   ",
"         %#&...........Xo                      oX......O               oX...........&#%         ",
"        %=&............Xo                      oX......O               oX............&=%        ",
"       %=&.............X%                      %X......O               %X.............&=%       ",
"       ;&..............X@@@@@@@@@@@@@@@@@@@@@@@@.......&@@@@@@@@@@@@@@@@...............&;       ",
"      +O................................................................................O+      ",
"     *O..................................................................................O*     ",
"    *$....................................................................................$*    ",
"   *$......................................................................................O*   ",
"   +........................................................................................+   ",
"   +........................................................................................+   ",
"   +........................................................................................+   ",
"   +...&=#####################=-.......-=#####################=&.......X@#############=&....+   ",
"   +...O                       =.......@                       $.......X%              $....+   ",
"   +...O                       #.......@                       $.......Xo              $....+   ",
"   +...O                       #.......@                       $.......Xo              $....+   ",
"   +...O                       #.......@                       $.......Xo              $....+   ",
"   +...O                       #.......@                       $.......Xo              $....+   ",
"   +...O                       #.......@                       $.......Xo              $....+   ",
"   +...O%ooooooooooooooooooooo%@.......@%ooooooooooooooooooooo%O.......X*ooooooooooooo%O....+   ",
"   +....XXXXXXXXXXXXXXXXXXXXXXXX........XXXXXXXXXXXXXXXXXXXXXXX.........XXXXXXXXXXXXXXX.....+   ",
"   +........................................................................................+   ",
"   +........................................................................................+   ",
"   +........................................................................................+   ",
"   +........................................................................................+   ",
"   +........................................................................................+   ",
"   +........................................................................................+  %",
"   +........................................................................................+   ",
"   *$$$&.......&$$$$$$$$$$$$$$$&.......&$$$$$$$O.......X$$$$$$$$$$$$$$$$$$$$$$$&.......&$$$$*   ",
"       =.......@               =.......@       %X......O                       =.......@        ",
"       #.......@               #.......@       oX......O                       #.......@        ",
"       #.......@               #.......@       oX......O                       #.......@        ",
"       #.......@               #.......@       oX......O                       #.......@        ",
"       #.......@               #.......@       oX......O                       #.......@        ",
"       #.......@               #.......@       oX......O                       #.......@        ",
"       =.......@               =.......@       %X......O                       =.......@        ",
"   *OOO&.......&OOOOOOOOOOOOOOO&.......&OOOOOOOO.......XOOOOOOOOOOOOOOOOOOOOOOO&.......&OOOO*   ",
"   +........................................................................................+   ",
"   +........................................................................................+   ",
"   +........................................................................................+   ",
"   +........................................................................................+   ",
"   +........................................................................................+   ",
"   +........................................................................................+   ",
"   +XXXXXXXXXXXXXXXXXXXX........XXXXXXXXXXXXXXXXXXXXXXXXXXXXXXX.........XXXXXXXXXXXXXXXXXXXX+   ",
"    ooooooooooooooooooo*X......O%ooooooooooooooooooooooooooooo%O.......X*ooooooooooooooooooo    ",
"                       oX......O                               $.......Xo                       ",
"                       oX......O                               $.......Xo                       ",
"                       oX......O                               $.......Xo                       ",
"                       oX......O                               $.......Xo                       ",
"                       oX......O                               $.......Xo                       ",
"                       oX......O                               $.......Xo                       ",
"                       %X......O                               $.......Xo                       ",
"   o@@@;       ;@@@@@@@@$$$$$$$@                       *@@@@@@@-$$$$$$$$%              ;@@@@o   ",
"   +...O       O.......X%                              #.......@                       O....+   ",
"   +...O       $.......Xo                              #.......@                       $....+   ",
"   +...O       $.......Xo                              #.......@                       $....+   ",
"   +...O       $.......Xo                              #.......@                       $....+   ",
"   +...O       $.......Xo                              #.......@                       $....+   ",
"   +...O       $.......Xo                              #.......@                       $....+   ",
"   +...O       $.......X%                              =.......@                       $....+   ",
"   +...XOOOOOOOX........OOOOOOOOOOOOOOOOOOOOOOOOOOOOOOO&.......&OOOOOOOOOOOOOOOOOOOOOOOX....+   ",
"   +........................................................................................+   ",
"   +........................................................................................+   ",
"   +........................................................................................+   ",
"   +........................................................................................+   ",
"   +........................................................................................+   ",
"   +........................................................................................+   ",
"   +....XXXXXXXXXXXXXXXXXXXXXXXX.......XXXXXXXXXXXXXXXXX.......XXXXXXXXXXXXXXXXX............+   ",
"   +...O%ooooooooooooooooooooo%@.......@%ooooooooooooo%@.......@%ooooooooooooo%@............+   ",
"   +...O                       #.......@               #.......@               #............+   ",
"   +...O                       #.......@               #.......@               #............+   ",
"   +...O                       #.......@               #.......@               #............+   ",
"   +...O                       #.......@               #.......@               #............+   ",
"   +...O                       #.......@               #.......@               #............+   ",
"   +...O                       #.......@               #.......@               #............+   ",
"   +...O                       =.......@               =.......@               =............+   ",
"   +...&@@@@@@@@@@@@@@@@@@@@@@@-.......-@@@@@@@@@@@@@@@-.......-@@@@@@@@@@@@@@@-............+   ",
"   +........................................................................................+   ",
"   +........................................................................................+   ",
"   *&......................................................................................O*   ",
"   %#&....................................................................................$*    ",
"    %#&..................................................................................O*     ",
"     %=&................................................................................O+      ",
"      %=&..............................................................................&;       ",
"       %;O.....................&=##############@X......&=##############@X.............&=%       ",
"         +O....................O               %X......O               %X............&=%        ",
"         %*$...................O               oX......O               oX...........&#%         ",
"           *O..................O               oX......O               oX..........&#%          ",
"    %       *+++++++++++++++++++                +++++++*                +++++++++++*%     %     ",
"                                                                                                ",
"                                                                                                ",
"                                                                                                "
};
