/* XPM */
static char * exit_notreached_xpm[] = {
"96 96 5 1",
" 	c None",
".	c #FFFFFF",
"+	c #010101",
"@	c #050505",
"#	c #FAFAFA",
"                                                                                                ",
"                                                                                                ",
"                                                                                                ",
"                                                                                                ",
"                           .........        .........       .........                           ",
"                           .........        .........       .........                           ",
"                           .........        .........       .........                           ",
"                           .........        .........       .........                           ",
"                           .........        .........       .........                           ",
"                           .........        .........       .........                           ",
"                           .........        .........       .........                           ",
"                           .........        .........       .........                           ",
"                           .........        .........       .........                           ",
"                                                                                                ",
"                                                                                                ",
"                                                                                                ",
"                                                                                                ",
"                                                                                                ",
"                                                                                                ",
"                                                                                                ",
"           .........                .........................                .........          ",
"           .........                .........................                .........          ",
"           .........                .........................                .........          ",
"           .........                .........................                .........          ",
"           .........                .........................                .........          ",
"           .........                .........................                .........          ",
"           .........                .........................                .........          ",
"           .........                .........................                .........          ",
"           .........                .........................                .........          ",
"                            ........+++++++++++++++++++++++++........                           ",
"                            ........+++++++++++++++++++++++++........                           ",
"                            ........+++++++++++++++++++++++++........                           ",
"                            ........+++++++++++++++++++++++++........                           ",
"                            ........+++++++++++++++++++++++++........                           ",
"                            ........+++++++++++++++++++++++++........                           ",
"                            ........+++++++++++++++++++++++++........                           ",
"           .........        ........+++++++++++++++++++++++++........        .........          ",
"           .........        ........+++++++++++++++++++++++++........        .........          ",
"           .........        ........+++++++++++++++++++++++++........        .........          ",
"           .........        ........+++++++++++++++++++++++++........        .........          ",
"           .........        ........+++++++++++++++++++++++++........        .........          ",
"           .........        ........+++++++++++++++++++++++++........        .........          ",
"           .........        ........+++++++++++++++++++++++++........        .........          ",
"           .........        ........+++++++++++++++++++++++++........        .........          ",
"           .........        ........+++++++++++++++++++++++++........        .........          ",
"                                    ........++++++++.........                                   ",
"                                    ........++++++++.........                                   ",
"                                    ........++++++++.........                                   ",
"                                    ........++++++++.........                                   ",
"                                    ........++++++++.........                                   ",
"                                    ........++++++++.........                                   ",
"                                    ........++++++++.........                                   ",
"           .........                ........++++++++.........                .........          ",
"           .........                ........++++++++.........                .........          ",
"           .........                ........++++++++.........                .........          ",
"           .........                ........++++++++.........                .........          ",
"           .........                ........++++++++.........                .........          ",
"           .........                ........++++++++.........                .........          ",
"           .........                ........++++++++.........                .........          ",
"           .........                ........++++++++.........                .........          ",
"           .........                ........++++++++.........                .........          ",
"                                    ........+++++++++++++++++........                           ",
"                                    ........+++++++++++++++++........                           ",
"                                    ........+++++++++++++++++........                           ",
"                                    ........+++++++++++++++++........                           ",
"                                    ........+++++++++++++++++........                           ",
"                                    ........+++++++++++++++++........                           ",
"                                    ........+++++++++++++++++........                           ",
"           .........                ........@++++++++++++++++........        .........          ",
"           .........                .................................        .........          ",
"           .........                .................................        .........          ",
"           .........                .................................        .........          ",
"           .........                .................................        .........          ",
"           .........                .................................        .........          ",
"           .........                .................................        .........          ",
"           .........                .................................        .........          ",
"           ........#                .................................        .........          ",
"                                                                                                ",
"                                                                                                ",
"                                                                                                ",
"                                                                                                ",
"                                                                                                ",
"                                                                                                ",
"                                                                                                ",
"           .........       .........        .........       .........        .........          ",
"           .........       .........        .........       .........        .........          ",
"           .........       .........        .........       .........        .........          ",
"           .........       .........        .........       .........        .........          ",
"           .........       .........        .........       .........        .........          ",
"           .........       .........        .........       .........        .........          ",
"           .........       .........        .........       .........        .........          ",
"           .........       .........        .........       .........        .........          ",
"           .........       .........        .........       ........#        .........          ",
"                                                                                                ",
"                                                                                                ",
"                                                                                                "};
