/* XPM */
static char * three_coin_xpm[] = {
"96 96 2 1",
" 	c None",
".	c #FFFC1B",
"                                                                                                ",
"                                                                                                ",
"                                                                                                ",
"                                                                                                ",
"                                                                                                ",
"                                                                                                ",
"                                                                                                ",
"                                                                                                ",
"                                                                                                ",
"                                                                                                ",
"                                                                                                ",
"                                                                                                ",
"                                                                                                ",
"                                                                                                ",
"                                                                                                ",
"                                        .................                                       ",
"                                        .................                                       ",
"                                        .................                                       ",
"                                        .................                                       ",
"                                        .................                                       ",
"                                        .................                                       ",
"                                        .................                                       ",
"                                        .................                                       ",
"                                .................................                               ",
"                                .................................                               ",
"                                .................................                               ",
"                                .................................                               ",
"                                .................................                               ",
"                                .................................                               ",
"                                .................................                               ",
"                                .................................                               ",
"                                .................................                               ",
"                                .................................                               ",
"                                .................................                               ",
"                                .................................                               ",
"                                .................................                               ",
"                                .................................                               ",
"                                .................................                               ",
"                                .................................                               ",
"                                .................................                               ",
"                                .................................                               ",
"                                .................................                               ",
"                                .................................                               ",
"                                .................................                               ",
"                                .................................                               ",
"                                .................................                               ",
"                                .................................                               ",
"                                .................................                               ",
"                                .................................                               ",
"                                .................................                               ",
"                                .................................                               ",
"                                .................................                               ",
"                                .................................                               ",
"                                .................................                               ",
"                                .................................                               ",
"                                .................................                               ",
"                                .................................                               ",
"                                .................................                               ",
"                                .................................                               ",
"                                .................................                               ",
"                                .................................                               ",
"                                .................................                               ",
"                                .................................                               ",
"                                .................................                               ",
"                                .................................                               ",
"                                .................................                               ",
"                                .................................                               ",
"                                .................................                               ",
"                                .................................                               ",
"                                .................................                               ",
"                                .................................                               ",
"                                .................................                               ",
"                                .................................                               ",
"                                        .................                                       ",
"                                        .................                                       ",
"                                        .................                                       ",
"                                        .................                                       ",
"                                        .................                                       ",
"                                        .................                                       ",
"                                        .................                                       ",
"                                        .................                                       ",
"                                                                                                ",
"                                                                                                ",
"                                                                                                ",
"                                                                                                ",
"                                                                                                ",
"                                                                                                ",
"                                                                                                ",
"                                                                                                ",
"                                                                                                ",
"                                                                                                ",
"                                                                                                ",
"                                                                                                ",
"                                                                                                ",
"                                                                                                ",
"                                                                                                "};
